<?xml version="1.0" encoding="UTF-8"?>
<svg id="Layer_1" data-name="Layer 1" xmlns="http://www.w3.org/2000/svg" viewBox="0 0 1794 1806.07">
  <defs>
    <style>
      .cls-1 {
        fill: #703227;
      }

      .cls-2 {
        fill: #723833;
      }

      .cls-3 {
        fill: #ce8651;
      }

      .cls-4 {
        fill: #5e241c;
      }

      .cls-5 {
        fill: #c67d4b;
      }

      .cls-6 {
        fill: #7c4643;
      }

      .cls-7 {
        fill: #e29d64;
      }

      .cls-8 {
        fill: #e2a476;
      }
    </style>
  </defs>
  <path class="cls-7" d="M1571.27,1492.03c-16.49,17.34-32.99,33.67-49.43,49.14-30.61,28.79-61.05,54.47-91.15,77.43-306.77,234.04-576.74,182.69-576.74,182.69-281.6-16.61-431.18-128.67-496.09-195.1-31.06-31.8-64.33-61.33-100.61-87.01C-124.22,1249.6,31.43,711.97,31.43,711.97,152.11,343.14,276.18,231.87,341.6,198.31c31.69-16.27,62.18-34.8,90.07-56.91,84.4-66.77,206.95-90.92,283.64-101.46,37.86-5.21,64.56-7.03,69.83-9.07,27.55-10.49,55.1-18.08,82.42-23.07,324.9-59.57,621.35,241.52,621.35,241.52,313.68,268.22,292.88,574.59,292.88,574.59,73.74,355.4-210.52,668.12-210.52,668.12Z"/>
  <path class="cls-8" d="M1070.31,161.53c-11.34,0-705.7,175.72-263.57,617.84,442.12,442.12,715.11,53.85,715.11,53.85,0,0,214.38-293.05-53.39-516.38-267.77-223.33-398.14-155.31-398.14-155.31Z"/>
  <path class="cls-3" d="M1521.84,1541.18c-30.61,28.79-61.05,54.47-91.15,77.43-306.77,234.04-576.74,182.69-576.74,182.69-281.6-16.61-431.18-128.67-496.09-195.1-31.06-31.8-64.33-61.33-100.61-87.01C-124.22,1249.6,31.43,711.97,31.43,711.97,152.11,343.14,276.18,231.87,341.6,198.31c31.69-16.27,62.18-34.8,90.07-56.91,84.4-66.77,206.95-90.92,283.64-101.46,37.86-5.21,64.56-7.03,69.83-9.07,27.55-10.49,55.1-18.08,82.42-23.07C694.1,111.59,244.22,412.97,290.47,721.72c48.18,321.9,26.19,756.66,804.55,819.18,15.76,1.3,31.86,2.38,48.24,3.34,110.36,6.46,235.8,5.84,378.58-3.06Z"/>
  <path class="cls-5" d="M1430.69,1618.61c-306.77,234.04-576.74,182.69-576.74,182.69-281.6-16.61-431.18-128.67-496.09-195.1-31.06-31.8-64.33-61.33-100.61-87.01C-124.22,1249.6,31.43,711.97,31.43,711.97,152.11,343.14,276.18,231.87,341.6,198.31c31.69-16.27,62.18-34.8,90.07-56.91,84.4-66.77,206.95-90.92,283.64-101.46-56.68,28.4-118.92,62.75-163.64,96.42-104.86,79.02-243.73,90.35-345.76,288.74-68.47,133.09-319.97,633.65,84.57,994.15,242.15,215.85,488.21,279.1,646.69,295.15,86.84,8.79,174.53-.17,258.13-25.22l235.4-70.57Z"/>
  <path class="cls-1" d="M983.98,97.56c-14.74,0-29.46,2.52-43.03,8.27-21.69,9.19-45.05,27.63-27.14,63.23,28.65,56.97,112.06,33.21,112.06,33.21,0,0,48.84-21.59,41.29-68.82-6.33-39.57-51.12-38.03-65.48-36.48-3.91.42-7.81.6-11.74.6h-5.96Z"/>
  <path class="cls-1" d="M1484.13,608.5s-96.04-20.5-81.58,62.49c14.46,82.99,65.33,87.39,65.33,87.39,0,0,122.5,21.67,118.95-61.27-3.55-82.94-102.71-88.61-102.71-88.61Z"/>
  <path class="cls-1" d="M1013.93,582.59c-23.89-3.02-120.06-5.54-60.96,66.5,59.11,72.04,113.93,9.9,116.22,3.85,7.7-20.37-26.01-66.65-55.26-70.35Z"/>
  <path class="cls-4" d="M152.09,900.33s44.36,172.88,92.54,96.36c48.18-76.52,79.36-198.37-17-187.04s-75.54,90.68-75.54,90.68Z"/>
  <path class="cls-1" d="M1431.66,1073.52c-5.71-3.59-12.5-5.03-19.17-4.02-21.67,3.29-74.09,14.62-78.57,47.71-5.67,41.81,93.53,88.85,121.87,55.41,25.89-30.55,9.21-78.14-24.13-99.1Z"/>
  <path class="cls-1" d="M700.28,891.4c-5.71-3.59-12.5-5.03-19.17-4.02-21.67,3.29-74.09,14.62-78.57,47.71-5.67,41.81,93.53,88.85,121.87,55.41,25.89-30.55,9.21-78.14-24.13-99.1Z"/>
  <path class="cls-1" d="M1041.99,1241.74c-19.45-10.69-43.39-9.21-62.52,2.02-44.04,25.86-140.47,92.8-34.6,131.09,114.17,41.3,163.8-96.48,97.12-133.11Z"/>
  <path class="cls-4" d="M1072,1572.11c-2.11,8.56.23,17.66,6.09,24.26,14.92,16.8,47.82,44.46,67.79-9.75,24.42-66.29-60.69-68.15-73.88-14.5Z"/>
  <path class="cls-4" d="M523.42,1393.08c1.91-28.84-40.89-34.51-48.06-6.51-5.18,20.23-2.91,37.28,22.94,31.6,17.71-3.89,24.36-13.59,25.12-25.09Z"/>
  <path class="cls-1" d="M1037.66,911.88c1.91-28.84-40.89-34.51-48.06-6.51-5.18,20.23-2.91,37.28,22.94,31.6,17.71-3.89,24.36-13.59,25.12-25.09Z"/>
  <path class="cls-1" d="M451.47,570.86c-8.58-11.03-21.16-18.25-34.82-21.19-21.22-4.57-55.79-4.85-76.89,32.39-17.78,31.38,10.48,54.37,39.25,68.63,34.25,16.98,76.58-3.05,82.61-40.8,2.02-12.68-.13-26.16-10.14-39.03Z"/>
  <path class="cls-2" d="M398.72,554.7c-14.77,1.45-47.79,8.73-48.26,44.71-.02,1.8.13,3.63.51,5.39,1.92,8.95,11.12,32.8,54.89,38.27,13.36,1.67,27.04-3.03,35.42-13.57,5.76-7.24,10.62-17.96,11.6-33.74.08-1.36-.27-2.72-.2-4.08.47-9.26-3.66-33.94-40.79-36.23-4.41-.27-8.77-1.18-13.16-.74Z"/>
  <path class="cls-6" d="M430.8,572.1c-4.27-4.04-10-6.2-15.87-6.45-14.34-.62-43.51.9-34.32,24.68,12.05,31.18,47.47,34.72,55.97,26.22,7.32-7.32,8.86-30.58-5.78-44.44Z"/>
  <path class="cls-2" d="M1026.2,105.74c-16.65-.75-71.27-.49-89.6,33.38,0,0-4.25,49.12,59.99,49.12,44.67,0,58.74-26.96,63.16-43.38,3.47-12.9-1.73-26.78-13.34-33.39-2.76-1.57-6.01-2.98-9.84-4.1-3.36-.99-6.88-1.48-10.38-1.64Z"/>
  <path class="cls-6" d="M1031.4,113.07c-.92-.29-1.89-.53-2.84-.7-5.58-1.02-25.14-3.79-35.79,5.26-12.52,10.63,35.9,71.8,48.65,50.78,12.59-20.75,23.8-44.73-10.02-55.34Z"/>
  <path class="cls-2" d="M1529.14,633.27c-.81-.55-1.64-1.05-2.5-1.51-6.71-3.51-37.43-18.85-75.85-10.4-49.13,10.81-14.61,82.06,27.63,102.03,26.99,12.76,68.15,24.12,92.6,3.54,20.35-17.12-3.97-67.77-41.88-93.66Z"/>
  <path class="cls-6" d="M1492.59,629.75c-10.85-2.92-33.62-3.68-39.68,5.78-6.1,9.52-1.85,44.48,33.3,58.02,74.15,28.55,73.23-29.88,42.78-48.37-11.74-7.13-25.98-12.63-36.4-15.43Z"/>
  <path class="cls-2" d="M1017.04,1249.02c-5.86-3.45-13.09-3.39-18.96.06-23.64,13.89-77.51,54.21-31.22,80.82,56.68,32.59,80.89,1.76,89.27-30.47,7.97-30.64-25.14-42.19-39.1-50.41Z"/>
  <path class="cls-6" d="M1019.88,1261.31c-1.09-.04-2.19.21-3.17.69-4.89,2.38-17.86,10.62,2.11,24.2,11.99,8.15,18.86,6.76,22.75,3.34,4.53-4,5.03-10.91,1.87-16.07-3.25-5.32-9.97-11.71-23.56-12.16Z"/>
  <path class="cls-2" d="M1033.95,598.68c-6.93-5.72-15.54-8.94-24.51-9.48-16.59-1.01-49.75-.01-55.33,22.04-7.44,29.41,46.05,64.12,59.16,64.83,13.11.71,42.16-13.11,47.12-27.63,3.82-11.19-9.9-36.12-26.44-49.76Z"/>
  <path class="cls-6" d="M1009.87,592.79c-.62-.04-1.23-.03-1.85.03-5.6.49-33.37,3.65-18.67,16.75,16.3,14.52,40.03,27.46,48.53,16.3,8.38-11-6.96-31.6-28.01-33.07Z"/>
  <path class="cls-2" d="M708.02,913.5c-13.62-11.86-32.95-14.54-50.02-8.65-20.96,7.23-47.65,21.49-28.75,43.86,29.05,34.36,74.4,42.16,79,38.26,5.49-4.65,31.17-46.12-.23-73.47Z"/>
  <path class="cls-6" d="M677.96,906.94s-19.84-.57-22.14,13.07c-2.3,13.64,55.62,39.15,57.57,26.92,1.95-12.22-3.72-40.31-35.43-40Z"/>
  <path class="cls-2" d="M1009.92,890.78c-4.87,1.44-7.59,5.16-9.16,7.31-7.17,9.78-6.05,23.83-5.73,27.06.12,1.58.57,3.72,2.13,5.31,3.33,3.4,9.54,2.11,15.41.89,3.05-.64,7.34-1.83,12.22-4.25,1.71-1.25,6.69-5.25,8.33-12.22.18-.77.97-4.33.08-8.86-.43-2.19-1.36-6.64-5.22-10.45-4.19-4.14-9.16-4.88-10.97-5.13-1.57-.21-4.13-.53-7.09.35Z"/>
  <path class="cls-6" d="M1015.22,893.53c-.35,0-8.41,1.24-7.71,7.17.71,5.93,18.24,6.73,20.1,5.49,1.11-.74,2.04-12.4-12.4-12.66Z"/>
  <path class="cls-2" d="M238.56,836.04c-2.29-2.06-5.06-3.44-8.09-4-9.63-1.77-31.34-2.42-39.68,24.79-8.31,27.1,18.49,66.09,31.54,82.92,3.73,4.81,10.68,5.65,15.4,1.8,12.69-10.34,34.31-31.91,29.58-55.91-5.12-25.98-21.59-43.17-28.74-49.6Z"/>
  <path class="cls-6" d="M226.8,840.3s-28.52-4.96-17.54,12.22c7.39,11.56,20.06,14.22,27.57,14.72,3.52.24,6.46-2.72,6.23-6.24-.48-7.08-3.36-18-16.26-20.7Z"/>
  <path class="cls-2" d="M506.33,1376.45c-.83-.36-1.76-.51-2.66-.48-4.72.2-19.47,1.85-14.54,14.86,4.09,10.78,13.29,11.77,18.45,11.38,2.37-.17,4.44-1.64,5.44-3.79,2.56-5.49,5.78-16.62-6.69-21.97Z"/>
  <path class="cls-6" d="M504.28,1377.93s-6.55-1.1-6.73,3.77c-.18,4.87,11.87,6.29,12.13,2.66s-2.09-5.33-5.4-6.43Z"/>
  <path class="cls-2" d="M1118.01,1541.04s-34.72,9.21-25.03,25.03c9.68,15.82,28.34,30.94,37.79,19.84,9.45-11.1,15.59-51.49-12.75-44.87Z"/>
  <path class="cls-6" d="M1120.61,1544.11s-12.99,7.32-2.13,12.28c10.86,4.96,18.66-12.28,2.13-12.28Z"/>
  <path class="cls-2" d="M1409.93,1080.26c-27.15,2.26-46.75,16.68-48.64,32.36-1.01,8.37,3.14,16.22,4.24,18.18,1.94,3.46,6.54,10.18,27.87,19.37,22.38,9.64,35.05,15.1,47.97,9.31,1.45-.65,14.61-4.19,14.29-13.12-.71-19.97-13.79-61.11-45.73-66.1Z"/>
  <path class="cls-6" d="M1404.73,1085.92s-24.56,5.67-19.37,17.48c3.12,7.09,16.81,9.59,27.25,10.44,8.38.69,15.21-7.28,12.82-15.34-1.9-6.4-7.29-12.37-20.7-12.58Z"/>
</svg>